# xmcd
#
# Track frame offsets:
#	187
#	13577
#	27752
#	40750
#	55017
#	68707
#	82835
#	96965
#
# Disc length: 1452 seconds
#
# Revision: 3
# Processed by: cddbd v1.5.2PL0 Copyright (c) Steve Scherf et al.
# Submitted via: EZCDAudioConverter 6.0.3.1
#
DISCID=5305aa08
DTITLE=Various Artist - Country and Eastern
DYEAR=1996
DGENRE=Country
TTITLE0=The Desert Rose Band - Love Reunited
TTITLE1=Lyle Lovett - If I Had a Boat
TTITLE2=Nanci Griffith - Beacon Street
TTITLE3=Steve Earle - Continental Trailways Blues
TTITLE4=Lyle Lovett - Give Back My Heart
TTITLE5=The Desert Rose Band - He's Back and I'm Blue
TTITLE6=Steve Earle - Six Days on the Road
TTITLE7=Nanci Griffith - I Wish It Would Rain
EXTD=
EXTT0=
EXTT1=
EXTT2=
EXTT3=
EXTT4=
EXTT5=
EXTT6=
EXTT7=
PLAYORDER=
